{"title":"Somebody.Up.There.Likes.Me.WEBRip XViD juggs","uid":8287586,"size":742707867,"categoryP":"video","categoryS":"movies","magnet":"?xt=urn:btih:46cd7060cafa24af0fa3dd038c10b1581eb6c470&amp;dn=Somebody.Up.There.Likes.Me.WEBRip+XViD+juggs&amp;tr=udp%3A%2F%2Ftracker.openbittorrent.com%3A80&amp;tr=udp%3A%2F%2Fopen.demonii.com%3A1337&amp;tr=udp%3A%2F%2Ftracker.coppersurfer.tk%3A6969&amp;tr=udp%3A%2F%2Fexodus.desync.com%3A6969","seeders":1,"leechers":0,"uploader":"Gh0stNet","files":3,"time":1363971469,"description":"Source : NGB(Thanks)\n &lt;a href=&quot;\nhttp://www.imdb.com/title/tt2014346/&quot; rel=&quot;nofollow&quot; target=&quot;_NEW&quot;&gt;\nhttp://www.imdb.com/title/tt2014346/&lt;/a&gt;\n\nFormat/Info                              : Audio Video Interleave\nFile size                                : 700 MiB\nDuration                                 : 1h 15mn\nOverall bit rate                         : 1 298 Kbps\nWriting library                          : VirtualDub build 32842/release\n\nVideo\nID                                       : 0\nFormat                                   : MPEG-4 Visual\nFormat profile                           : Advanced Simple@L5\nFormat settings, BVOP                    : 4\nFormat settings, QPel                    : No\nFormat settings, GMC                     : No warppoints\nFormat settings, Matrix                  : Default (H.263)\nMuxing mode                              : Packed bitstream\nCodec ID                                 : XVID\nCodec ID/Hint                            : XviD\nDuration                                 : 1h 15mn\nBit rate                                 : 1 159 Kbps\nWidth                                    : 640 pixels\nHeight                                   : 352 pixels\nDisplay aspect ratio                     : 16:9\nFrame rate                               : 29.970 fps\nColor space                              : YUV\nChroma subsampling                       : 4:2:0\nBit depth                                : 8 bits\nScan type                                : Progressive\nCompression mode                         : Lossy\nBits/(Pixel*Frame)                       : 0.172\nStream size                              : 624 MiB (89%)\nWriting library                          : XviD 64\n\nAudio\nID                                       : 1\nFormat                                   : MPEG Audio\nFormat version                           : Version 1\nFormat profile                           : Layer 3\nCodec ID                                 : 55\nCodec ID/Hint                            : MP3\nDuration                                 : 1h 15mn\nBit rate mode                            : Constant\nBit rate                                 : 128 Kbps\nChannel(s)                               : 2 channels\nSampling rate                            : 44.1 KHz\nCompression mode                         : Lossy\nStream size                              : 69.0 MiB (10%)\nAlignment                                : Split accross interleaves\nInterleave, duration                     : 33 ms (1.00 video frame)\nInterleave, preload duration             : 500 ms\nWriting library                          : LAME3.99r\nEncoding settings                        : -m s -V 4 -q 3 -lowpass 17 -b 128\n\n\nPlot\nA comedy about a man, his best friend, and the woman they both adore watching their lives fly by.\n\nScreens: &lt;a href=&quot;\nhttp://i.imgur.com/34PEZaz.png&quot; rel=&quot;nofollow&quot; target=&quot;_NEW&quot;&gt;\nhttp://i.imgur.com/34PEZaz.png&lt;/a&gt; &lt;a href=&quot;\nhttp://i.imgur.com/0PJQunJ.png&quot; rel=&quot;nofollow&quot; target=&quot;_NEW&quot;&gt;\nhttp://i.imgur.com/0PJQunJ.png&lt;/a&gt; &lt;a href=&quot;\nhttp://i.imgur.com/b9EtDR9.png&quot; rel=&quot;nofollow&quot; target=&quot;_NEW&quot;&gt;\nhttp://i.imgur.com/b9EtDR9.png&lt;/a&gt;","torrent":{"xt":"urn:btih:46cd7060cafa24af0fa3dd038c10b1581eb6c470","amp;dn":"Somebody.Up.There.Likes.Me.WEBRip+XViD+juggs","amp;tr":["udp%3A%2F%2Ftracker.openbittorrent.com%3A80","udp%3A%2F%2Fopen.demonii.com%3A1337","udp%3A%2F%2Ftracker.coppersurfer.tk%3A6969","udp%3A%2F%2Fexodus.desync.com%3A6969"],"infoHash":"46cd7060cafa24af0fa3dd038c10b1581eb6c470","infoHashBuffer":{"type":"Buffer","data":[70,205,112,96,202,250,36,175,15,163,221,3,140,16,177,88,30,182,196,112]},"announce":[],"urlList":[]}}